<?xml version="1.0" encoding="utf-8"?>
<!-- Generator: Adobe Illustrator 27.5.0, SVG Export Plug-In . SVG Version: 6.00 Build 0)  -->
<svg version="1.1" xmlns="http://www.w3.org/2000/svg" xmlns:xlink="http://www.w3.org/1999/xlink" x="0px" y="0px"
	 viewBox="0 0 419.528 595.276" style="enable-background:new 0 0 419.528 595.276;" xml:space="preserve">
<g id="BACKGROUND">
	<rect x="-0.185" y="0.056" style="fill:#1C1A37;" width="420" height="595.22"/>
</g>
<g id="OBJECTS">
	<g>
		<defs>
			<rect id="SVGID_1_" x="-0.185" y="0.056" width="420" height="595.22"/>
		</defs>
		<clipPath id="SVGID_00000107561737625163064560000012968134638652457608_">
			<use xlink:href="#SVGID_1_"  style="overflow:visible;"/>
		</clipPath>
		<g style="clip-path:url(#SVGID_00000107561737625163064560000012968134638652457608_);">
			<text transform="matrix(1 0 0 1 78.988 138.6789)" style="fill:#FFFFFF; font-family:'CoveredByYourGrace'; font-size:80px;">ATOMIC</text>
		</g>
		<g style="clip-path:url(#SVGID_00000107561737625163064560000012968134638652457608_);">
			<text transform="matrix(1 0 0 1 180.8394 201.2339)" style="fill:#FFFFFF; font-family:'CoveredByYourGrace'; font-size:80px;">LOVE</text>
		</g>
		<g style="clip-path:url(#SVGID_00000107561737625163064560000012968134638652457608_);">
			
				<text transform="matrix(1 0 0 1 90.8891 54.4675)" style="fill:#D56041; font-family:'Lato-Bold'; font-size:16px; letter-spacing:1;">A NOVEL BY SELENA WALLS</text>
		</g>
		<path style="clip-path:url(#SVGID_00000107561737625163064560000012968134638652457608_);fill:#FFFFFF;" d="M362.272,114.021
			c-7.813,4.652-17.954,2.082-22.607-5.731c-4.652-7.812-2.082-17.954,5.731-22.606c0.971-0.578,1.98-1.05,3.021-1.414
			c-1.909,5.812-1.26,12.226,1.964,17.638c3.223,5.413,8.553,9.039,14.573,10.129C364.138,112.78,363.243,113.442,362.272,114.021z"
			/>
		<path style="opacity:0.6;clip-path:url(#SVGID_00000107561737625163064560000012968134638652457608_);fill:#FFFFFF;" d="
			M334.024,233.657c4.037,0.773,7.146,2.648,11.324,3.012c4.943,0.426,9.326,0.522,14.211-0.309
			c5.085-0.863,12.35-1.908,17.338,0.098c3.987,1.605,8.297,2.244,12.451,3.387c4.621,1.27,10.346-0.051,15.045-0.314
			c4.258-0.24,8.198-0.719,12.354-1.684c2.371-0.551,4.758-0.857,7.166-1.195c2.477-0.348,4.586-1.545,6.988-2.01
			c4.568-0.887,9.524-0.684,14.165-0.885c4.87-0.211,9.91-0.777,14.779-0.52c4.478,0.238,8.885,0.953,13.338,1.453
			c9.53,1.066,19.939,0.348,29.427-0.863c2.199-0.281,4.583-0.764,6.671-1.518c2.955-1.068,6.128-0.637,9.191-0.719
			c4.442-0.119,8.899-0.289,13.344-0.203c5.502,0.107,10.431,0.568,15.826,1.627c2.325,0.457,4.582,0.797,6.908,0.973
			c0.52,0.055,1.038,0.096,1.555,0.104c5.012,0.076,5.842-7.197,1.161-8.58c-3.191-0.943-6.499-0.188-9.624,0.652
			c-5.212,1.398-10.477,1.26-15.826,1.344c-5.109,0.08-10.23,0.139-15.34,0.111c-4.848-0.025-9.118-1.621-13.866-2.145
			c-8.476-0.936-18.142,0.541-26.828-0.178c-2.934-0.244-4.517-2.195-3.567-3.942c1.215-2.234,3.07-3.672,3.875-6.197
			c0.729-2.287,1.065-4.463,0.814-6.857c-0.529-5.061-4.025-8.791-8.389-11.049c-8.24-4.265-19.657-2.336-25.015,5.51
			c-1.436,2.102-2.516,4.598-2.917,7.126c-0.157,0.993,0.064,6.505-0.534,7.036c-3.185,2.832-10.741,2.023-14.143-0.898
			c1.296-6.906-3.436-14.41-10.362-16.097c-3.642-0.887-7.403,0.126-10.936,0.96c-4.014,0.947-1.975-3.579-3.004-6.121
			c-4.747-11.735-24.169-23.838-34.803-11.528c-5.996,6.941-5.363,14.705-3.291,22.959c0.938,3.733-2.498,1.561-7.273,1.959
			c-4.943,0.412-10.422,2.529-12.785,7.133c-2.072,4.033,2.496,9.867-0.219,13.535c-1.785,2.412-5.648,1.275-8.752,1.449
			C332.634,230.378,332.024,233.274,334.024,233.657z"/>
		<path style="opacity:0.6;clip-path:url(#SVGID_00000107561737625163064560000012968134638652457608_);fill:#FFFFFF;" d="
			M167.051,206.279c-0.087-0.19-0.197-0.379-0.355-0.557c-2.144-2.449-5.086-4.14-8.457-3.994c-2.385,0.1-4.568,0.538-6.874,1.121
			c-2.652,0.672-5.45,0.367-8.024,1.124c-10.9,3.21-22.178,1.168-28.871-8.721c-5.285-7.807-5.962-17.832-12.399-25.134
			c-5.993-6.8-16.669-7.748-24.323-3.239c-7.358,4.334-12.199,11.384-14.958,19.401c-1.692,4.916-2.763,7.634-7.763,9.359
			c-4.449,1.534-8.299,3.937-11.083,7.723c-2.91,3.955-7.769,11.791-12.504,4.823c-2.686-3.952-9.13-4.526-13.371-4.566
			c-5.433-0.047-11.001,2.467-15.914,4.455c-3.99,1.614-7.685,1.961-11.496,1.631c-9.197-4.823-21.151-7.27-28.801-0.184
			c-4.463,4.135-8.691,2.985-14.218,3.558c-2.82,0.292-7.492,2.399-5.015,6.041c3.728,5.485,17.22,1.654,22.26,0.624
			c7.041-1.439,14.875-0.915,21.986-0.511c5.024,0.286,9.808,1.56,14.726,2.531c4.697,0.924,8.837,3.795,13.381,5.288
			c7.866,2.583,15.207,3.93,23.089,0.639c3.658-1.526,7.127-3.374,10.247-5.809c4.039-3.152,6.149-4.367,11.36-4.61
			c8.444-0.397,11.094,6.725,17.399,10.67c6.343,3.968,15.328,1.209,21.66-1.145c3.588-1.335,5.803-8.361,10.48-6.018
			c1.163,0.582,2.055,1.593,3.075,2.402c4.662,3.698,8.906,8.351,14.505,10.641c6.247,2.556,12.807,0.425,17.503-4.04
			c2.349-2.236,4.714-4.449,6.992-6.758c3.172-3.218,3.957-7.514,8.331-9.645c2.107-1.026,4.536-1.548,6.746-2.314
			C168.754,210.239,168.562,207.488,167.051,206.279z"/>
		<path style="opacity:0.6;clip-path:url(#SVGID_00000107561737625163064560000012968134638652457608_);fill:#FFFFFF;" d="
			M631.106,484.208c-0.162-2.502-2.564-3.35-4.324-2.645c-3.279-0.629-6.922-1.381-9.557-3.232c0.193-0.471,0.387-0.943,0.598-1.408
			c0.779-1.781,1.461-3.664,1.428-5.645c-0.129-7.666-7.191-14.117-14.344-16.004c-1.15-0.303-2.428-0.311-3.615-0.379
			c-0.404-0.021-0.799-0.219-0.865-0.225c-3.764-3.141-7.098-8.281-10.156-12.012c-4.758-5.807-9.371-12.453-16.947-14.747
			c-18.131-5.489-30.232,12.573-38.594,25.519c-2.752,4.258-5.6,7.887-10.02,10.473c-4.053,2.371-8.35,3.992-12.193,6.762
			c-6.258,4.514-11.848,9.924-18.471,13.875c-0.129-0.082-0.279-0.141-0.455-0.162c-2.301-0.289-4.529-0.99-6.785-1.262
			c-4.08-0.492-5.004-3.82-5.76-7.176c-1.75-7.76-10.314-14.142-17.916-14.855c-9.674-0.906-15.373,4.727-20.936,11.684
			c-3.451,4.316-7.68,5.01-12.734,6.598c-5.846,1.834-10.557,5.99-16.373,8.123c-6.658,2.441-13.147,0.805-18.938-2.932
			c-4.299-2.775-10.494-4.373-15.424-5.424c-12.035-2.568-20.957,4.435-31.977,7.57c-11.287,3.213-22.752-1.17-34.164-0.701
			c-1.633,0.068-4.98,0.553-5.322,2.688c-0.064,0.408-0.072,0.793-0.039,1.162c-0.188,0.031-0.35,0.205-0.305,0.473
			c1.297,7.693,9.438,9.869,16.334,9.25c11.186-1.004,21.457-6.32,32.643-7.271c7.152-0.607,14.242,2.17,21.445,2.238
			c7.666,0.072,15.199-1.873,22.818-2.436c7.168-0.529,14.439-0.484,21.506,0.918c6.713,1.332,12.311,5.83,18.936,7.643
			c11.463,3.139,27.828,2.527,37.977-4.184c4.738-3.133,8.27-7.063,14.287-7.57c6.586-0.555,12.127,4.709,18.397,5.947
			c6.611,1.307,14.041-0.111,20.688-0.541c8.432-0.543,15.885,0.912,23.285,4.983c5.072,2.787,9.996,8.195,15.658,9.594
			c6.369,1.57,10.928-1.922,16.518-4.359c8.189-3.572,18.459,5.561,24.076-4.209c2.123-3.695,1.08-8.215,1.779-12.199
			c0.674-3.836,7.203-0.238,9.266,0.414c2.188,0.689,4.264,0.525,6.465,0.102c1.318-0.254,2.279-1.826,2.197-3.094
			C631.165,485.103,631.136,484.655,631.106,484.208z"/>
		<path style="opacity:0.6;clip-path:url(#SVGID_00000107561737625163064560000012968134638652457608_);fill:#FFFFFF;" d="
			M356.507,609.636c4.037,0.773,7.146,2.648,11.324,3.012c4.943,0.426,9.326,0.521,14.211-0.309
			c5.086-0.863,12.35-1.908,17.338,0.098c3.987,1.605,8.297,2.244,12.451,3.387c4.621,1.27,10.346-0.051,15.045-0.315
			c4.258-0.24,8.198-0.719,12.354-1.684c2.371-0.551,4.758-0.857,7.166-1.195c2.477-0.348,4.586-1.545,6.988-2.01
			c4.568-0.887,9.524-0.684,14.165-0.885c4.87-0.211,9.91-0.777,14.779-0.52c4.478,0.238,8.885,0.953,13.338,1.453
			c9.53,1.066,19.939,0.348,29.427-0.863c2.199-0.281,4.583-0.764,6.671-1.518c2.955-1.068,6.128-0.637,9.191-0.719
			c4.442-0.119,8.899-0.289,13.344-0.203c5.502,0.107,10.431,0.568,15.826,1.627c2.325,0.457,4.582,0.797,6.908,0.973
			c0.52,0.055,1.038,0.096,1.555,0.104c5.012,0.076,5.842-7.197,1.161-8.58c-3.191-0.943-6.499-0.188-9.624,0.652
			c-5.212,1.398-10.478,1.26-15.826,1.344c-5.109,0.08-10.23,0.139-15.34,0.111c-4.848-0.025-9.118-1.621-13.866-2.145
			c-8.476-0.936-18.142,0.541-26.828-0.178c-2.934-0.244-4.517-2.195-3.567-3.942c1.215-2.234,3.07-3.672,3.875-6.197
			c0.729-2.287,1.065-4.463,0.814-6.857c-0.529-5.061-4.025-8.791-8.389-11.049c-8.24-4.265-19.657-2.336-25.015,5.51
			c-1.435,2.102-2.516,4.598-2.917,7.126c-0.157,0.993,0.064,6.505-0.534,7.036c-3.185,2.832-10.741,2.023-14.143-0.898
			c1.296-6.906-3.436-14.41-10.362-16.097c-3.642-0.887-7.403,0.126-10.936,0.96c-4.014,0.947-1.975-3.58-3.004-6.122
			c-4.747-11.735-24.169-23.839-34.803-11.529c-5.996,6.941-5.363,14.705-3.291,22.958c0.938,3.733-2.498,1.561-7.273,1.959
			c-4.943,0.412-10.422,2.529-12.785,7.133c-2.072,4.033,2.496,9.867-0.219,13.535c-1.785,2.412-5.648,1.275-8.752,1.449
			C355.116,606.357,354.507,609.253,356.507,609.636z"/>
		<path style="opacity:0.6;clip-path:url(#SVGID_00000107561737625163064560000012968134638652457608_);fill:#FFFFFF;" d="
			M79.241,499.173c-3.103-0.174-6.967,0.963-8.752-1.449c-2.715-3.668,1.854-9.502-0.219-13.535
			c-2.363-4.603-7.842-6.721-12.785-7.133c-4.775-0.398-8.21,1.774-7.273-1.959c2.072-8.254,2.705-16.017-3.291-22.958
			c-10.634-12.31-30.056-0.207-34.803,11.528c-1.028,2.542,1.01,7.069-3.004,6.121c-3.532-0.834-7.294-1.847-10.936-0.96
			c-6.927,1.686-11.658,9.19-10.362,16.097c-3.402,2.922-10.959,3.73-14.144,0.898c-0.598-0.531-0.377-6.043-0.534-7.036
			c-0.401-2.528-1.481-5.024-2.917-7.126c-5.357-7.846-16.774-9.774-25.015-5.51c-4.363,2.258-7.859,5.988-8.389,11.049
			c-0.251,2.395,0.085,4.57,0.814,6.857c0.805,2.525,2.66,3.963,3.875,6.197c0.949,1.746-0.634,3.697-3.567,3.941
			c-8.687,0.719-18.353-0.758-26.828,0.178c-4.748,0.523-9.019,2.119-13.866,2.145c-5.109,0.027-10.23-0.031-15.34-0.111
			c-5.349-0.084-10.614,0.055-15.826-1.344c-3.125-0.84-6.433-1.596-9.624-0.652c-4.681,1.383-3.851,8.656,1.161,8.58
			c0.517-0.008,1.035-0.049,1.555-0.103c2.326-0.176,4.583-0.516,6.908-0.973c5.396-1.059,10.324-1.52,15.826-1.627
			c4.444-0.086,8.901,0.084,13.344,0.203c3.063,0.082,6.236-0.35,9.191,0.719c2.088,0.754,4.472,1.236,6.671,1.518
			c9.488,1.211,19.896,1.93,29.427,0.863c4.453-0.5,8.86-1.215,13.338-1.453c4.869-0.258,9.909,0.309,14.779,0.52
			c4.641,0.201,9.597-0.002,14.165,0.885c2.402,0.465,4.512,1.662,6.988,2.01c2.408,0.338,4.795,0.645,7.166,1.195
			c4.156,0.965,8.097,1.443,12.354,1.684c4.699,0.264,10.424,1.584,15.045,0.314c4.154-1.143,8.464-1.781,12.451-3.387
			c4.988-2.006,12.253-0.961,17.338-0.098c4.885,0.83,9.268,0.734,14.211,0.309c4.178-0.363,7.287-2.238,11.324-3.012
			C81.7,502.175,81.09,499.278,79.241,499.173z"/>
		<path style="opacity:0.6;clip-path:url(#SVGID_00000107561737625163064560000012968134638652457608_);fill:#FFFFFF;" d="
			M-292.889,308.579c-0.082,1.268,0.879,2.84,2.197,3.094c2.201,0.424,4.277,0.588,6.465-0.102c2.063-0.652,8.592-4.25,9.266-0.414
			c0.699,3.984-0.344,8.504,1.779,12.199c5.617,9.77,15.887,0.637,24.076,4.209c5.59,2.438,10.148,5.93,16.518,4.359
			c5.662-1.398,10.586-6.807,15.658-9.594c7.4-4.07,14.854-5.525,23.285-4.982c6.646,0.43,14.076,1.848,20.688,0.541
			c6.27-1.238,11.811-6.502,18.396-5.947c6.018,0.508,9.549,4.438,14.287,7.57c10.148,6.711,26.514,7.322,37.977,4.184
			c6.625-1.813,12.223-6.311,18.936-7.643c7.066-1.402,14.338-1.447,21.506-0.918c7.619,0.563,15.152,2.508,22.818,2.436
			c7.203-0.068,14.293-2.846,21.445-2.238c11.186,0.951,21.457,6.268,32.643,7.271c6.896,0.619,15.037-1.557,16.334-9.25
			c0.045-0.268-0.117-0.441-0.305-0.473c0.033-0.369,0.025-0.754-0.039-1.162c-0.342-2.135-3.689-2.619-5.322-2.688
			c-11.412-0.469-22.877,3.914-34.164,0.701c-11.019-3.135-19.941-10.139-31.977-7.57c-4.93,1.051-11.125,2.648-15.424,5.424
			c-5.791,3.736-12.279,5.373-18.937,2.932c-5.816-2.133-10.527-6.289-16.373-8.123c-5.055-1.588-9.283-2.281-12.734-6.598
			c-5.562-6.957-11.262-12.59-20.936-11.684c-7.602,0.713-16.166,7.096-17.916,14.855c-0.756,3.355-1.68,6.684-5.76,7.176
			c-2.256,0.271-4.484,0.973-6.785,1.262c-0.176,0.021-0.326,0.08-0.455,0.162c-6.623-3.951-12.213-9.361-18.471-13.875
			c-3.844-2.77-8.141-4.391-12.193-6.762c-4.42-2.586-7.268-6.215-10.02-10.473c-8.361-12.945-20.463-31.008-38.594-25.519
			c-7.576,2.294-12.189,8.94-16.947,14.747c-3.059,3.73-6.393,8.871-10.156,12.012c-0.067,0.006-0.461,0.203-0.865,0.225
			c-1.188,0.068-2.465,0.076-3.615,0.379c-7.152,1.887-14.215,8.338-14.344,16.004c-0.033,1.98,0.648,3.863,1.428,5.645
			c0.211,0.465,0.404,0.938,0.598,1.408c-2.635,1.852-6.277,2.604-9.557,3.232c-1.76-0.705-4.162,0.143-4.324,2.645
			C-292.833,307.685-292.862,308.132-292.889,308.579z"/>
		<path style="clip-path:url(#SVGID_00000107561737625163064560000012968134638652457608_);fill:#FFFFFF;" d="M369.975,263.294
			c-0.28-0.341-0.345-0.817-0.063-1.183c0.152-0.197,0.311-0.309,0.517-0.436c0.027-0.018,0.121-0.072,0.128-0.09
			c0.2-0.527,1.08-0.668,1.213,0c0.042,0.211,0.034,0.417,0.001,0.617c0.102,0.218,0.09,0.477-0.144,0.681
			c-0.194,0.171-0.397,0.416-0.626,0.542C370.691,263.597,370.218,263.588,369.975,263.294z"/>
		<path style="clip-path:url(#SVGID_00000107561737625163064560000012968134638652457608_);fill:#FFFFFF;" d="M130.227,179.037
			c-0.28-0.341-0.345-0.817-0.064-1.183c0.152-0.197,0.312-0.309,0.517-0.436c0.027-0.018,0.121-0.072,0.128-0.09
			c0.2-0.527,1.08-0.668,1.213,0c0.042,0.211,0.034,0.417,0.001,0.617c0.102,0.218,0.09,0.477-0.144,0.681
			c-0.194,0.171-0.397,0.416-0.626,0.542C130.944,179.341,130.47,179.331,130.227,179.037z"/>
		<path style="clip-path:url(#SVGID_00000107561737625163064560000012968134638652457608_);fill:#FFFFFF;" d="M36.014,417.963
			c-0.28-0.341-0.345-0.817-0.063-1.183c0.152-0.197,0.311-0.309,0.517-0.436c0.027-0.018,0.121-0.072,0.128-0.09
			c0.2-0.527,1.08-0.668,1.213,0c0.042,0.211,0.034,0.417,0.001,0.617c0.102,0.218,0.09,0.476-0.144,0.681
			c-0.194,0.171-0.397,0.416-0.626,0.542C36.73,418.267,36.257,418.257,36.014,417.963z"/>
		<path style="clip-path:url(#SVGID_00000107561737625163064560000012968134638652457608_);fill:#FFFFFF;" d="M226.419,234.677
			c-0.28-0.341-0.345-0.817-0.063-1.183c0.152-0.197,0.311-0.309,0.517-0.436c0.027-0.018,0.121-0.072,0.128-0.09
			c0.2-0.527,1.08-0.668,1.213,0c0.042,0.211,0.034,0.417,0.001,0.617c0.102,0.218,0.09,0.477-0.144,0.681
			c-0.194,0.171-0.397,0.416-0.626,0.542C227.136,234.98,226.662,234.971,226.419,234.677z"/>
		<path style="clip-path:url(#SVGID_00000107561737625163064560000012968134638652457608_);fill:#FFFFFF;" d="M43.673,427.858
			c-0.28-0.341-0.345-0.817-0.063-1.183c0.152-0.197,0.312-0.309,0.517-0.436c0.027-0.018,0.121-0.072,0.128-0.09
			c0.2-0.527,1.08-0.668,1.213,0c0.042,0.211,0.034,0.417,0.001,0.617c0.101,0.218,0.09,0.477-0.144,0.681
			c-0.194,0.171-0.397,0.416-0.626,0.542C44.39,428.162,43.916,428.152,43.673,427.858z"/>
		<path style="clip-path:url(#SVGID_00000107561737625163064560000012968134638652457608_);fill:#FFFFFF;" d="M22.23,569.166
			c-0.28-0.341-0.345-0.817-0.064-1.183c0.152-0.197,0.312-0.309,0.517-0.436c0.027-0.018,0.121-0.072,0.128-0.09
			c0.2-0.527,1.08-0.668,1.213,0c0.042,0.211,0.034,0.417,0.001,0.617c0.101,0.218,0.09,0.477-0.144,0.681
			c-0.194,0.171-0.397,0.416-0.626,0.542C22.947,569.47,22.473,569.46,22.23,569.166z"/>
		<path style="clip-path:url(#SVGID_00000107561737625163064560000012968134638652457608_);fill:#FFFFFF;" d="M44.723,581.197
			c-0.28-0.341-0.345-0.817-0.063-1.183c0.152-0.197,0.312-0.309,0.517-0.436c0.027-0.018,0.121-0.072,0.128-0.09
			c0.2-0.527,1.08-0.668,1.213,0c0.042,0.211,0.034,0.417,0.001,0.617c0.102,0.218,0.09,0.477-0.144,0.681
			c-0.194,0.171-0.397,0.416-0.626,0.542C45.44,581.501,44.967,581.491,44.723,581.197z"/>
		<path style="clip-path:url(#SVGID_00000107561737625163064560000012968134638652457608_);fill:#FFFFFF;" d="M151.051,169.878
			c-0.28-0.341-0.345-0.817-0.064-1.183c0.152-0.197,0.311-0.309,0.517-0.436c0.027-0.018,0.121-0.072,0.128-0.09
			c0.2-0.527,1.08-0.668,1.213,0c0.042,0.211,0.034,0.417,0.001,0.617c0.102,0.218,0.09,0.477-0.144,0.681
			c-0.194,0.171-0.397,0.416-0.626,0.542C151.768,170.182,151.294,170.172,151.051,169.878z"/>
		<path style="clip-path:url(#SVGID_00000107561737625163064560000012968134638652457608_);fill:#FFFFFF;" d="M277.294,14.613
			c-0.28-0.341-0.345-0.817-0.064-1.183c0.152-0.197,0.311-0.309,0.517-0.436c0.027-0.018,0.121-0.072,0.128-0.09
			c0.2-0.527,1.08-0.668,1.213,0c0.042,0.211,0.034,0.417,0.001,0.617c0.102,0.218,0.09,0.476-0.144,0.681
			c-0.194,0.171-0.397,0.416-0.626,0.542C278.011,14.917,277.537,14.907,277.294,14.613z"/>
		<path style="clip-path:url(#SVGID_00000107561737625163064560000012968134638652457608_);fill:#FFFFFF;" d="M54.246,39.255
			c-0.28-0.341-0.345-0.817-0.063-1.183c0.152-0.197,0.312-0.309,0.517-0.436c0.027-0.018,0.121-0.072,0.128-0.09
			c0.2-0.527,1.08-0.668,1.213,0c0.042,0.211,0.034,0.417,0.001,0.617c0.102,0.218,0.09,0.476-0.144,0.681
			c-0.194,0.171-0.397,0.416-0.626,0.542C54.962,39.559,54.489,39.549,54.246,39.255z"/>
		<path style="clip-path:url(#SVGID_00000107561737625163064560000012968134638652457608_);fill:#FFFFFF;" d="M30.586,144.516
			c-0.28-0.341-0.345-0.817-0.064-1.183c0.152-0.197,0.312-0.309,0.517-0.436c0.027-0.018,0.121-0.072,0.128-0.09
			c0.2-0.527,1.08-0.668,1.213,0c0.042,0.211,0.034,0.417,0.001,0.617c0.102,0.218,0.09,0.476-0.144,0.681
			c-0.194,0.171-0.397,0.416-0.626,0.542C31.303,144.82,30.829,144.81,30.586,144.516z"/>
		<path style="clip-path:url(#SVGID_00000107561737625163064560000012968134638652457608_);fill:#FFFFFF;" d="M330.927,118.497
			c-0.28-0.341-0.345-0.817-0.064-1.183c0.152-0.197,0.311-0.309,0.517-0.436c0.027-0.018,0.121-0.072,0.128-0.09
			c0.2-0.527,1.08-0.668,1.213,0c0.042,0.211,0.034,0.417,0.001,0.617c0.102,0.218,0.09,0.477-0.144,0.681
			c-0.194,0.171-0.397,0.416-0.626,0.542C331.644,118.8,331.17,118.791,330.927,118.497z"/>
		<path style="clip-path:url(#SVGID_00000107561737625163064560000012968134638652457608_);fill:#FFFFFF;" d="M394.852,23.58
			c-0.28-0.341-0.345-0.817-0.064-1.183c0.152-0.197,0.311-0.309,0.517-0.436c0.027-0.018,0.121-0.072,0.128-0.09
			c0.2-0.527,1.08-0.668,1.213,0c0.042,0.211,0.034,0.417,0.001,0.617c0.102,0.218,0.09,0.477-0.144,0.681
			c-0.194,0.171-0.397,0.416-0.626,0.542C395.568,23.884,395.095,23.874,394.852,23.58z"/>
		<path style="clip-path:url(#SVGID_00000107561737625163064560000012968134638652457608_);fill:#FFFFFF;" d="M413.128,91.845
			c-0.28-0.341-0.345-0.817-0.064-1.183c0.152-0.197,0.312-0.309,0.517-0.436c0.027-0.018,0.121-0.072,0.128-0.09
			c0.2-0.527,1.08-0.668,1.213,0c0.042,0.211,0.034,0.417,0.001,0.617c0.102,0.218,0.09,0.476-0.144,0.681
			c-0.194,0.171-0.397,0.416-0.626,0.542C413.845,92.149,413.371,92.139,413.128,91.845z"/>
		<path style="clip-path:url(#SVGID_00000107561737625163064560000012968134638652457608_);fill:#FFFFFF;" d="M395.902,308.261
			c-0.28-0.341-0.345-0.817-0.064-1.183c0.152-0.197,0.312-0.309,0.517-0.436c0.027-0.018,0.121-0.072,0.128-0.09
			c0.2-0.527,1.08-0.668,1.213,0c0.042,0.211,0.034,0.417,0.001,0.617c0.102,0.218,0.09,0.477-0.144,0.681
			c-0.194,0.171-0.397,0.416-0.626,0.542C396.619,308.565,396.145,308.555,395.902,308.261z"/>
		<path style="clip-path:url(#SVGID_00000107561737625163064560000012968134638652457608_);fill:#FFFFFF;" d="M12.413,292.081
			c-0.28-0.341-0.345-0.817-0.063-1.183c0.152-0.197,0.311-0.309,0.517-0.436c0.027-0.018,0.121-0.072,0.128-0.09
			c0.2-0.527,1.08-0.668,1.213,0c0.042,0.211,0.034,0.417,0.001,0.617c0.102,0.218,0.09,0.477-0.144,0.681
			c-0.194,0.171-0.397,0.416-0.626,0.542C13.129,292.384,12.656,292.375,12.413,292.081z"/>
		<path style="clip-path:url(#SVGID_00000107561737625163064560000012968134638652457608_);fill:#FFFFFF;" d="M14.513,127.209
			c-0.28-0.341-0.345-0.817-0.064-1.183c0.152-0.197,0.312-0.309,0.517-0.436c0.027-0.018,0.121-0.072,0.128-0.09
			c0.2-0.527,1.08-0.668,1.213,0c0.042,0.211,0.034,0.417,0.001,0.617c0.101,0.218,0.09,0.477-0.144,0.681
			c-0.194,0.171-0.397,0.416-0.626,0.542C15.23,127.512,14.756,127.503,14.513,127.209z"/>
		<path style="clip-path:url(#SVGID_00000107561737625163064560000012968134638652457608_);fill:#FFFFFF;" d="M404.411,369.383
			c-0.28-0.341-0.345-0.817-0.064-1.183c0.152-0.197,0.311-0.309,0.517-0.436c0.027-0.018,0.121-0.072,0.128-0.09
			c0.2-0.527,1.08-0.668,1.213,0c0.042,0.211,0.034,0.417,0.001,0.617c0.102,0.218,0.09,0.477-0.144,0.681
			c-0.194,0.171-0.397,0.416-0.626,0.542C405.128,369.687,404.654,369.677,404.411,369.383z"/>
		<path style="clip-path:url(#SVGID_00000107561737625163064560000012968134638652457608_);fill:#FFFFFF;" d="M371.025,436.431
			c-0.28-0.341-0.345-0.817-0.064-1.183c0.152-0.197,0.311-0.309,0.517-0.436c0.027-0.018,0.121-0.072,0.128-0.09
			c0.2-0.527,1.08-0.668,1.213,0c0.042,0.211,0.034,0.417,0.001,0.617c0.102,0.218,0.09,0.477-0.144,0.681
			c-0.194,0.171-0.397,0.416-0.626,0.542C371.742,436.735,371.268,436.725,371.025,436.431z"/>
		<path style="clip-path:url(#SVGID_00000107561737625163064560000012968134638652457608_);fill:#FFFFFF;" d="M368.924,570.367
			c-0.28-0.341-0.345-0.817-0.064-1.183c0.152-0.197,0.312-0.309,0.517-0.436c0.027-0.018,0.121-0.072,0.128-0.09
			c0.2-0.527,1.08-0.668,1.213,0c0.042,0.211,0.034,0.417,0.001,0.617c0.102,0.218,0.09,0.477-0.144,0.681
			c-0.194,0.171-0.397,0.416-0.626,0.542C369.641,570.671,369.167,570.661,368.924,570.367z"/>
		<path style="clip-path:url(#SVGID_00000107561737625163064560000012968134638652457608_);fill:#FFFFFF;" d="M372.075,555.016
			c-0.28-0.341-0.345-0.817-0.064-1.183c0.152-0.197,0.312-0.309,0.517-0.436c0.027-0.018,0.121-0.072,0.128-0.09
			c0.2-0.527,1.08-0.668,1.213,0c0.042,0.211,0.034,0.417,0.001,0.617c0.102,0.218,0.09,0.477-0.144,0.681
			c-0.194,0.171-0.397,0.416-0.626,0.542C372.792,555.32,372.318,555.31,372.075,555.016z"/>
		<path style="clip-path:url(#SVGID_00000107561737625163064560000012968134638652457608_);fill:#FFFFFF;" d="M396.952,378.187
			c-0.28-0.341-0.345-0.817-0.064-1.183c0.152-0.197,0.311-0.309,0.517-0.436c0.027-0.018,0.121-0.072,0.128-0.09
			c0.2-0.527,1.08-0.668,1.213,0c0.042,0.211,0.034,0.417,0.001,0.617c0.102,0.218,0.09,0.477-0.144,0.681
			c-0.194,0.171-0.397,0.416-0.626,0.542C397.669,378.491,397.195,378.481,396.952,378.187z"/>
		<path style="clip-path:url(#SVGID_00000107561737625163064560000012968134638652457608_);fill:#FFFFFF;" d="M405.461,458.665
			c-0.28-0.341-0.345-0.817-0.064-1.183c0.152-0.197,0.311-0.309,0.517-0.436c0.027-0.018,0.121-0.072,0.128-0.09
			c0.2-0.527,1.08-0.668,1.213,0c0.042,0.211,0.034,0.417,0.001,0.617c0.102,0.218,0.09,0.477-0.144,0.681
			c-0.194,0.171-0.397,0.416-0.626,0.542C406.178,458.969,405.705,458.959,405.461,458.665z"/>
		<path style="clip-path:url(#SVGID_00000107561737625163064560000012968134638652457608_);fill:#FFFFFF;" d="M283.421,494.868
			c-0.28-0.341-0.345-0.817-0.064-1.183c0.152-0.197,0.312-0.309,0.517-0.436c0.027-0.018,0.121-0.072,0.128-0.09
			c0.2-0.527,1.08-0.668,1.213,0c0.042,0.211,0.034,0.417,0.001,0.617c0.102,0.218,0.09,0.477-0.144,0.681
			c-0.194,0.171-0.397,0.416-0.626,0.542C284.138,495.172,283.665,495.162,283.421,494.868z"/>
		<g style="clip-path:url(#SVGID_00000107561737625163064560000012968134638652457608_);">
			<g>
				<path style="fill:#F09C6D;" d="M254.245,257.488c-53.902,0-97.598,43.696-97.598,97.598s43.696,97.598,97.598,97.598h81.891
					c8.674,0,15.706-7.032,15.706-15.706v-81.891C351.843,301.184,308.147,257.488,254.245,257.488z"/>
				<path style="fill:#F09C6D;" d="M350.843,352.16v51.724h6.846c1.74,0,3.482-0.241,5.117-0.836
					c2.316-0.842,4.922-2.482,4.922-5.604C367.728,391.826,350.843,352.16,350.843,352.16z"/>
				<polygon style="fill:#F09C6D;" points="168.024,526.357 265.636,526.357 297.093,404.056 199.482,404.056 				"/>
				<path style="fill:#FFFFFF;" d="M102.756,595.735h200.19c0,0,6.473-112.601-85.395-112.601S102.756,595.735,102.756,595.735z"/>
				<path style="fill:#EFC8C8;" d="M351.843,296.943c-7.586-38.727-63.315-43.151-63.315-43.151
					c-22.445-3.169-44.397,0.586-61.624,5.602c-28.186,8.206-52.766,26.273-67.679,51.559
					c-35.615,60.392,3.849,119.022-49.438,177.243C45.44,558.5,73.491,595.735,73.491,595.735h47.02c0,0-7.745-58.088,36.136-89.07
					c43.882-30.982,71.108,3.575,91.366-41.459c20.257-45.034-44.089-106.3,22.343-113.046c8.259-0.839,15.849-2.15,22.819-3.799
					l0,0.002C293.175,348.363,359.429,335.67,351.843,296.943z"/>
				<g>
					<defs>
						<path id="SVGID_00000042720942796656377960000007333921000535545012_" d="M351.843,296.943
							c-7.586-38.727-63.315-43.151-63.315-43.151c-22.445-3.169-44.397,0.586-61.624,5.602
							c-28.186,8.206-52.766,26.273-67.679,51.559c-35.615,60.392,3.849,119.022-49.438,177.243
							C45.44,558.5,73.491,595.735,73.491,595.735h47.02c0,0-7.745-58.088,36.136-89.07c43.882-30.982,71.108,3.575,91.366-41.459
							c20.257-45.034-44.089-106.3,22.343-113.046c8.259-0.839,15.849-2.15,22.819-3.799l0,0.002
							C293.175,348.363,359.429,335.67,351.843,296.943z"/>
					</defs>
					<clipPath id="SVGID_00000072260048877569827120000011701288332786342811_">
						<use xlink:href="#SVGID_00000042720942796656377960000007333921000535545012_"  style="overflow:visible;"/>
					</clipPath>
				</g>
				<path style="fill:#D56041;" d="M331.899,416.842c0,0,8.344-2.666,19.736-6.204c3.612,2.353,2.262,6.204,0,6.204
					S331.899,416.842,331.899,416.842z"/>
				<path style="fill:#D56041;" d="M332.107,416.842l19.736,7.624c2.767-1.547,2.046-6.654,0-7.624
					C348.216,416.842,332.107,416.842,332.107,416.842z"/>
				<path style="fill:#2B2F68;" d="M341.592,353.685c1.598,0.229,1.803,2.472,0.286,3.024l-13.796,5.023
					c-2.978,1.085-5.973,2.158-9.062,3.179c-1.655,0.523-3.311,1.065-5.033,1.549c-1.566,0.441-2.666-1.525-1.496-2.656
					c1.316-1.272,2.738-2.413,4.223-3.461c2.829-1.958,5.908-3.558,9.16-4.731c3.257-1.154,6.674-1.928,10.161-2.138
					C337.871,353.397,339.746,353.421,341.592,353.685z"/>
				<path style="fill:#2B2F68;" d="M342.91,376.504c-2.37,0.835-4.805,1.223-7.228,1.315c-1.219,0.11-2.422,0.008-3.637-0.008
					c-1.206-0.087-2.408-0.225-3.607-0.382c-1.19-0.214-2.377-0.445-3.552-0.724c-1.162-0.348-2.337-0.626-3.467-1.088
					c-2.274-0.837-4.499-1.892-6.489-3.465l-0.03-0.023c-0.052-0.041-0.061-0.117-0.02-0.168c0.032-0.04,0.084-0.054,0.13-0.04
					c4.499,1.416,9.141,2.392,13.805,3.084c2.328,0.38,4.67,0.691,7.022,0.891c2.35,0.23,4.711,0.313,7.072,0.363
					c0.066,0.001,0.118,0.056,0.117,0.122c-0.001,0.051-0.034,0.094-0.08,0.11L342.91,376.504z"/>
				<path style="fill:#2B2F68;" d="M338.959,375.616l0.921-9.969l0.921,9.969c0.047,0.509-0.327,0.959-0.836,1.006
					c-0.509,0.047-0.959-0.327-1.006-0.836C338.954,375.73,338.955,375.67,338.959,375.616z"/>
			</g>
		</g>
		<g style="clip-path:url(#SVGID_00000107561737625163064560000012968134638652457608_);">
			<path style="fill:#F09C6D;" d="M163.282,256.809c53.902,0,97.598,43.696,97.598,97.598c0,53.902-43.696,97.598-97.598,97.598
				H81.391c-8.674,0-15.706-7.032-15.706-15.706v-81.892C65.685,300.505,109.381,256.809,163.282,256.809z"/>
			<path style="fill:#F09C6D;" d="M66.685,351.481v51.724h-6.846c-1.74,0-3.482-0.241-5.117-0.836
				c-2.316-0.842-4.922-2.482-4.922-5.604C49.8,391.146,66.685,351.481,66.685,351.481z"/>
			<polygon style="fill:#F09C6D;" points="249.503,525.677 151.892,525.677 120.434,403.376 218.046,403.376 			"/>
			<path style="fill:#D56041;" d="M85.42,415.96c0,0-8.344-2.666-19.736-6.204c-3.612,2.353-2.262,6.204,0,6.204
				C67.946,415.96,85.42,415.96,85.42,415.96z"/>
			<path style="fill:#D56041;" d="M85.42,415.96l-19.736,7.624c-2.767-1.547-2.046-6.654,0-7.624
				C69.312,415.96,85.42,415.96,85.42,415.96z"/>
			<path style="fill:#2B2F68;" d="M184.969,370.459c0,0-17.164-5.581-25.756,32.918c-9.665,0-9.665,0-9.665,0s8.055-34.529,0-93.058
				c-38.662,3.759-66.542-11.406-66.542-11.406s5.949-46.968,80.277-46.968S266.07,306.673,266.07,354.406
				c0,47.733-39.68,81.41-39.68,81.41s-41.421,8.207-41.421-28.844S184.969,370.459,184.969,370.459z"/>
			<path style="fill:#F09C6D;" d="M168.117,379.958c0,0,8.362-16.602,26.88-16.602s19.369,32.566,0.213,47.253
				c-19.156,14.687-31.927,5.534-31.927,5.534L168.117,379.958z"/>
			<g>
				<defs>
					<path id="SVGID_00000137100500895240547580000008037408325422282912_" d="M184.969,370.459c0,0-17.164-5.581-25.756,32.918
						c-9.665,0-9.665,0-9.665,0s8.055-34.529,0-93.058c-38.662,3.759-66.542-11.406-66.542-11.406s5.949-46.968,80.277-46.968
						S266.07,306.673,266.07,354.406c0,47.733-39.68,81.41-39.68,81.41s-41.421,8.207-41.421-28.844
						S184.969,370.459,184.969,370.459z"/>
				</defs>
				<clipPath id="SVGID_00000077287475174874714790000007777384779146176658_">
					<use xlink:href="#SVGID_00000137100500895240547580000008037408325422282912_"  style="overflow:visible;"/>
				</clipPath>
			</g>
			<path style="fill:#2B2F68;" d="M199.977,483.454c-91.868,0-93.372,112.601-93.372,112.601h187.683
				C294.287,596.056,291.845,483.454,199.977,483.454z"/>
			<path style="fill:#1F1E41;" d="M91.148,448.309L91.148,448.309c-1.612,0-2.931-1.319-2.931-2.931v-28.55
				c0-1.612,1.319-2.931,2.931-2.931l0,0c1.612,0,2.931,1.319,2.931,2.931v28.55C94.079,446.99,92.76,448.309,91.148,448.309z"/>
			<path style="fill:#2B2F68;" d="M94.041,414.256c-0.078-0.865-0.66-1.645-1.536-1.924l-26.502-8.444
				c-1.164-0.371-2.42,0.278-2.791,1.442c-0.371,1.164,0.278,2.42,1.442,2.791l20.614,6.568c1.05,0.335,1.098,1.803,0.072,2.205
				l-20.519,8.046c-0.738,0.289-1.197,0.947-1.334,1.676l-0.035,0.012v0.142c-0.016,0.138-0.011,0.272,0,0.413v19.774
				c0,4.572,3.707,8.279,8.279,8.279h12.614c5.375,0,9.732-4.357,9.732-9.733V414.24L94.041,414.256z"/>
			<path style="fill:#2B2F68;" d="M74.352,352.436c-1.598,0.229-1.803,2.472-0.286,3.024l13.795,5.022
				c2.978,1.086,5.973,2.158,9.062,3.179c1.655,0.523,3.311,1.065,5.033,1.549c1.566,0.441,2.666-1.525,1.496-2.655
				c-1.316-1.272-2.738-2.413-4.223-3.461c-2.829-1.958-5.908-3.558-9.16-4.73c-3.257-1.154-6.674-1.928-10.161-2.138
				C78.072,352.149,76.198,352.172,74.352,352.436z"/>
			<path style="fill:#2B2F68;" d="M73.034,375.009c2.361-0.049,4.722-0.132,7.072-0.363c2.352-0.2,4.693-0.511,7.022-0.891
				c4.664-0.692,9.306-1.668,13.805-3.084c0.063-0.02,0.131,0.015,0.15,0.078c0.015,0.049-0.002,0.1-0.04,0.13l-0.03,0.024
				c-1.989,1.574-4.214,2.628-6.489,3.465c-1.13,0.462-2.305,0.739-3.467,1.087c-1.176,0.28-2.362,0.511-3.552,0.724
				c-1.198,0.157-2.401,0.295-3.606,0.382c-1.214,0.016-2.418,0.118-3.637,0.008c-2.423-0.092-4.858-0.48-7.228-1.315l-0.037-0.013
				c-0.062-0.022-0.095-0.09-0.073-0.153C72.94,375.041,72.985,375.01,73.034,375.009z"/>
			<path style="fill:#2B2F68;" d="M75.143,374.367l0.921-9.969l0.921,9.969c0.047,0.509-0.327,0.959-0.836,1.006
				c-0.508,0.047-0.959-0.327-1.006-0.836C75.137,374.481,75.138,374.421,75.143,374.367z"/>
		</g>
	</g>
</g>
</svg>
